# xmcd
#
# Track frame offsets:
# 150
# 13474
# 28548
# 43448
# 58422
# 72323
# 89194
# 103829
# 120339
# 138595
# 156328
# 173167
# 191844
# 203479
# 220094
# 232262
# 245995
# 261092
# 274616
# 289666
# 303061
# 318367
#
# Disc length: 4442 seconds
#
#
# Revision: 0
# Processed by: cddbd v1.5.2PL0 Copyright (c) Steve Scherf et al.
# Submitted via: FreeRIP 2.944 
#
DISCID=5c115816
DTITLE=Various Artist - CDX 451 June 2008
DYEAR=2008
DGENRE=Country
TTITLE0=Jessica Simpson - Come On Over
TTITLE1=Randy Travis - Dig Two Graves
TTITLE2=Lee Ann Womack - Last Call
TTITLE3=Randy Owen - Like I Never Broke Her Heart
TTITLE4=Lady Antebellum - Lookin For A Good Time
TTITLE5=Sara Evans - Love You With All My Heart (Radio Edit)
TTITLE6=Trailer Chior - Off The Hillbilly Hook
TTITLE7=Lee Brice - Upper Middle Class White Trash
TTITLE8=Brad Paisley - Waitin' On A Woman
TTITLE9=Keith Urban - You Look Good In My Shirt
TTITLE10=Frizzle and Friends - This Is Our Time
TTITLE11=Eric Durrance - Angels Fly Away
TTITLE12=Roys, the - I Only Have Good Days
TTITLE13=Stephanie Beck Williams - Not Your Normal Country Girl
TTITLE14=Stephen Cochran - Thinkin' I'm Drinkin'
TTITLE15=Zachary Hunter - Those Aren't Tears In My Eyes
TTITLE16=Michael Owen Miller - Battle Of The Bottle
TTITLE17=Billy Pierson - Eternally Broke
TTITLE18=Steve Richard - Everything Beautiful To Me
TTITLE19=Frank Ortega - Hot Women Cold Beer
TTITLE20=Taryn Cross - I Can Break My Own Heart
TTITLE21=Caroline Keller - Let's Do This Together
EXTD=
EXTT0=
EXTT1=
EXTT2=
EXTT3=
EXTT4=
EXTT5=
EXTT6=
EXTT7=
EXTT8=
EXTT9=
EXTT10=
EXTT11=
EXTT12=
EXTT13=
EXTT14=
EXTT15=
EXTT16=
EXTT17=
EXTT18=
EXTT19=
EXTT20=
EXTT21=
PLAYORDER=
